<svg id="Layer_1" data-name="Layer 1" xmlns="http://www.w3.org/2000/svg" viewBox="0 0 122.88 81.32"><defs><style>.cls-1{fill-rule:evenodd;}</style></defs><title>cashier</title><path class="cls-1" d="M72.19,24.89a7.52,7.52,0,0,0,1.5,3.65v0l3.14,5a26.85,26.85,0,0,0,4.23,5.54,9,9,0,0,0,12.4-.1,27.83,27.83,0,0,0,4.34-5.93l3.54-5.83a5.66,5.66,0,0,0,.75-3.1c-.2-1.22-2.53-.49-3.31-.6L100,18.17c-9,1.42-15.72-5.26-25.22-1.33l.68,6.32c-1.3.06-3.33-.33-3.27,1.73ZM26.25,36.21V65.35H31v-8.1A1.25,1.25,0,0,1,32.27,56H83a1.25,1.25,0,0,1,1.24,1.24v7.88h3.69V53.45a1.36,1.36,0,0,0-1.35-1.35H85.05l.58-2.74a3,3,0,0,1-.5-1.61,14.76,14.76,0,0,1-4.43,1.71h0c-1.59-1.8-1.72-3.69,0-5.69a16.68,16.68,0,0,1,5.48,2.53,2.52,2.52,0,0,1,1.19-.2c1.75-1.23,4-1.73,5.91-2.66,2.32,2.26,2.07,4.34-.21,6.27a15.73,15.73,0,0,1-3.64-1.33,3.72,3.72,0,0,1-.25,1l2.53,12a53,53,0,0,0,4.44-15.73,35,35,0,0,1-2.51-3.39l-.5-.74a10.39,10.39,0,0,1-6,1.78,10.16,10.16,0,0,1-6.62-2.37,20.89,20.89,0,0,1-1.92,4.49.77.77,0,0,1-.18.18,65.15,65.15,0,0,0,1.43,6.5H56.68a26.38,26.38,0,0,1,4.71-3.19c3.39-1.89,12.13-2.53,15.94-5A32.33,32.33,0,0,0,79,39.65l0-.12a33.12,33.12,0,0,1-3.65-5l-3.14-5a9.07,9.07,0,0,1-1.78-4.57,3.47,3.47,0,0,1,.31-1.63,2.89,2.89,0,0,1,1.08-1.25,3,3,0,0,1,.76-.39,78.74,78.74,0,0,1-.15-9,12.3,12.3,0,0,1,.39-2C74,6.54,77.49,3.58,81.52,2.19c2-.68,1.2-2.29,3.18-2.18,4.69.25,11.93,3.27,14.71,6.48,3.89,4.49,2.89,10,2.76,15.5h0a2.28,2.28,0,0,1,1.66,1.71c.75,3-3.23,8.19-4.5,10.29a29.2,29.2,0,0,1-4.65,6.3l-.09.09.57.84c.62.91,1.33,2,2,2.76,3.88,2.42,12.45,3.07,15.79,4.93,8.35,4.66,6.49,8.51,7,16.44h1.7a1.25,1.25,0,0,1,1.24,1.24V81.32H.07V66.59a1.25,1.25,0,0,1,1.24-1.24H17.79V36.21H1.61A1.62,1.62,0,0,1,0,34.6V14.14a1.61,1.61,0,0,1,1.61-1.61h38.6a1.62,1.62,0,0,1,1.6,1.61V34.6a1.62,1.62,0,0,1-1.6,1.61ZM6.43,17.85h29a1.61,1.61,0,0,1,1.6,1.6v6.77a1.63,1.63,0,0,1-1.6,1.61h-29a1.63,1.63,0,0,1-1.61-1.61V19.45a1.61,1.61,0,0,1,1.61-1.6Z"/></svg>